<svg xmlns="http://www.w3.org/2000/svg" xmlns:xlink="http://www.w3.org/1999/xlink" width="500" zoomAndPan="magnify" viewBox="0 0 375 374.999991" height="500" preserveAspectRatio="xMidYMid meet" version="1.0"><defs><clipPath id="26e9e01962"><path d="M 187.5 0 C 83.945312 0 0 83.945312 0 187.5 C 0 291.054688 83.945312 375 187.5 375 C 291.054688 375 375 291.054688 375 187.5 C 375 83.945312 291.054688 0 187.5 0 Z M 187.5 0 " clip-rule="nonzero"/></clipPath><clipPath id="05892173b8"><path d="M 85.789062 150 L 106 150 L 106 157 L 85.789062 157 Z M 85.789062 150 " clip-rule="nonzero"/></clipPath><clipPath id="6444d0fa75"><path d="M 269 150 L 289.039062 150 L 289.039062 157 L 269 157 Z M 269 150 " clip-rule="nonzero"/></clipPath><clipPath id="c2d5699bdd"><path d="M 113 79 L 262 79 L 262 323.976562 L 113 323.976562 Z M 113 79 " clip-rule="nonzero"/></clipPath></defs><g clip-path="url(#26e9e01962)"><rect x="-37.5" width="450" fill="#fecc09" y="-37.499999" height="449.999989" fill-opacity="1"/></g><path fill="#3f3f3f" d="M 240.519531 144.117188 L 231.007812 143.382812 C 229.890625 138.375 227.941406 133.667969 225.203125 129.34375 L 231.402344 122.105469 C 232.433594 120.90625 232.359375 119.105469 231.238281 117.988281 L 222.699219 109.445312 C 221.578125 108.320312 219.777344 108.246094 218.578125 109.28125 L 211.339844 115.480469 C 207.015625 112.742188 202.308594 110.792969 197.304688 109.675781 L 196.570312 100.164062 C 196.445312 98.582031 195.125 97.363281 193.542969 97.363281 L 181.457031 97.363281 C 179.875 97.363281 178.554688 98.582031 178.429688 100.164062 L 177.695312 109.675781 C 172.6875 110.792969 167.980469 112.742188 163.65625 115.480469 L 156.421875 109.28125 C 155.214844 108.25 153.417969 108.324219 152.300781 109.445312 L 143.757812 117.988281 C 142.632812 119.105469 142.566406 120.90625 143.597656 122.105469 L 149.796875 129.34375 C 147.054688 133.667969 145.109375 138.375 143.988281 143.382812 L 134.480469 144.117188 C 132.898438 144.238281 131.675781 145.558594 131.675781 147.144531 L 131.675781 159.226562 C 131.675781 160.808594 132.898438 162.128906 134.480469 162.253906 L 143.988281 162.988281 C 145.105469 167.996094 147.050781 172.703125 149.796875 177.027344 L 143.597656 184.261719 C 142.566406 185.464844 142.632812 187.261719 143.757812 188.382812 L 152.300781 196.921875 C 153.421875 198.042969 155.222656 198.109375 156.421875 197.085938 L 163.65625 190.886719 C 167.980469 193.628906 172.6875 195.574219 177.695312 196.691406 L 178.429688 206.203125 C 178.554688 207.785156 179.875 209.003906 181.457031 209.003906 L 193.542969 209.003906 C 195.125 209.003906 196.445312 207.785156 196.570312 206.203125 L 197.304688 196.691406 C 202.3125 195.574219 207.015625 193.628906 211.339844 190.886719 L 218.578125 197.085938 C 219.777344 198.113281 221.578125 198.039062 222.699219 196.921875 L 231.238281 188.382812 C 232.359375 187.261719 232.433594 185.464844 231.402344 184.261719 L 225.203125 177.027344 C 227.941406 172.707031 229.890625 168 231.007812 162.988281 L 240.519531 162.253906 C 242.101562 162.128906 243.320312 160.808594 243.320312 159.226562 L 243.320312 147.144531 C 243.320312 145.558594 242.101562 144.238281 240.519531 144.117188 Z M 237.25 156.417969 L 228.242188 157.113281 C 226.851562 157.21875 225.714844 158.261719 225.480469 159.632812 C 224.507812 165.410156 222.300781 170.742188 218.921875 175.488281 C 218.113281 176.625 218.183594 178.167969 219.089844 179.222656 L 224.964844 186.078125 L 220.394531 190.648438 L 213.535156 184.773438 C 212.476562 183.867188 210.941406 183.800781 209.800781 184.605469 C 205.054688 187.984375 199.71875 190.191406 193.953125 191.164062 C 192.578125 191.394531 191.535156 192.535156 191.429688 193.925781 L 190.734375 202.933594 L 184.273438 202.933594 L 183.578125 193.925781 C 183.46875 192.535156 182.429688 191.394531 181.054688 191.164062 C 175.285156 190.191406 169.953125 187.984375 165.199219 184.605469 C 164.066406 183.796875 162.527344 183.867188 161.464844 184.773438 L 154.609375 190.648438 L 150.042969 186.078125 L 155.917969 179.222656 C 156.820312 178.164062 156.890625 176.628906 156.082031 175.492188 C 152.703125 170.742188 150.496094 165.40625 149.523438 159.636719 C 149.292969 158.261719 148.152344 157.21875 146.761719 157.113281 L 137.753906 156.417969 L 137.753906 149.957031 L 146.761719 149.261719 C 148.152344 149.15625 149.292969 148.113281 149.523438 146.738281 C 150.496094 140.96875 152.703125 135.636719 156.082031 130.882812 C 156.890625 129.746094 156.820312 128.207031 155.917969 127.148438 L 150.042969 120.292969 L 154.613281 115.722656 L 161.46875 121.597656 C 162.527344 122.503906 164.066406 122.574219 165.203125 121.765625 C 169.953125 118.386719 175.289062 116.179688 181.0625 115.207031 C 182.4375 114.972656 183.472656 113.835938 183.582031 112.445312 L 184.277344 103.4375 L 190.738281 103.4375 L 191.433594 112.445312 C 191.539062 113.835938 192.582031 114.972656 193.953125 115.207031 C 199.722656 116.179688 205.058594 118.386719 209.8125 121.765625 C 210.945312 122.574219 212.488281 122.5 213.542969 121.597656 L 220.402344 115.722656 L 224.96875 120.292969 L 219.097656 127.148438 C 218.1875 128.210938 218.121094 129.746094 218.929688 130.882812 C 222.304688 135.632812 224.511719 140.964844 225.488281 146.742188 C 225.71875 148.113281 226.855469 149.15625 228.246094 149.261719 L 237.253906 149.957031 L 237.253906 156.417969 Z M 237.25 156.417969 " fill-opacity="1" fill-rule="nonzero"/><path fill="#3f3f3f" d="M 187.496094 124.832031 C 171.863281 124.832031 159.144531 137.550781 159.144531 153.1875 C 159.144531 168.820312 171.863281 181.539062 187.496094 181.539062 C 203.132812 181.539062 215.851562 168.820312 215.851562 153.1875 C 215.851562 137.550781 203.132812 124.832031 187.496094 124.832031 Z M 187.496094 175.46875 C 175.210938 175.46875 165.214844 165.472656 165.214844 153.1875 C 165.214844 140.898438 175.210938 130.90625 187.496094 130.90625 C 199.785156 130.90625 209.777344 140.898438 209.777344 153.1875 C 209.777344 165.472656 199.785156 175.46875 187.496094 175.46875 Z M 187.496094 175.46875 " fill-opacity="1" fill-rule="nonzero"/><path fill="#3f3f3f" d="M 228.277344 82.554688 C 228.753906 82.832031 229.277344 82.964844 229.792969 82.964844 C 230.84375 82.964844 231.863281 82.417969 232.425781 81.445312 L 239.472656 69.234375 C 240.3125 67.78125 239.8125 65.925781 238.363281 65.085938 C 236.910156 64.25 235.054688 64.75 234.214844 66.199219 L 227.164062 78.410156 C 226.328125 79.863281 226.824219 81.71875 228.277344 82.554688 Z M 228.277344 82.554688 " fill-opacity="1" fill-rule="nonzero"/><path fill="#3f3f3f" d="M 112.71875 192.851562 L 100.507812 199.902344 C 99.054688 200.738281 98.558594 202.597656 99.398438 204.050781 C 99.960938 205.023438 100.980469 205.566406 102.03125 205.566406 C 102.542969 205.566406 103.066406 205.4375 103.542969 205.160156 L 115.753906 198.109375 C 117.210938 197.273438 117.703125 195.414062 116.867188 193.964844 C 116.027344 192.507812 114.167969 192.011719 112.71875 192.851562 Z M 112.71875 192.851562 " fill-opacity="1" fill-rule="nonzero"/><path fill="#3f3f3f" d="M 260.757812 113.925781 C 261.277344 113.925781 261.796875 113.792969 262.273438 113.519531 L 274.484375 106.46875 C 275.941406 105.628906 276.4375 103.773438 275.597656 102.320312 C 274.753906 100.867188 272.894531 100.367188 271.449219 101.210938 L 259.238281 108.257812 C 257.785156 109.097656 257.285156 110.957031 258.128906 112.40625 C 258.691406 113.382812 259.707031 113.925781 260.757812 113.925781 Z M 260.757812 113.925781 " fill-opacity="1" fill-rule="nonzero"/><g clip-path="url(#05892173b8)"><path fill="#3f3f3f" d="M 105.941406 153.183594 C 105.941406 151.503906 104.578125 150.148438 102.902344 150.148438 L 88.800781 150.148438 C 87.125 150.148438 85.765625 151.503906 85.765625 153.183594 C 85.765625 154.863281 87.125 156.21875 88.800781 156.21875 L 102.902344 156.21875 C 104.578125 156.21875 105.941406 154.863281 105.941406 153.183594 Z M 105.941406 153.183594 " fill-opacity="1" fill-rule="nonzero"/></g><g clip-path="url(#6444d0fa75)"><path fill="#3f3f3f" d="M 286.191406 150.148438 L 272.089844 150.148438 C 270.410156 150.148438 269.054688 151.503906 269.054688 153.183594 C 269.054688 154.863281 270.410156 156.21875 272.089844 156.21875 L 286.191406 156.21875 C 287.871094 156.21875 289.226562 154.863281 289.226562 153.183594 C 289.226562 151.503906 287.871094 150.148438 286.191406 150.148438 Z M 286.191406 150.148438 " fill-opacity="1" fill-rule="nonzero"/></g><path fill="#3f3f3f" d="M 100.507812 106.46875 L 112.71875 113.519531 C 113.195312 113.792969 113.722656 113.925781 114.234375 113.925781 C 115.285156 113.925781 116.304688 113.382812 116.867188 112.40625 C 117.703125 110.953125 117.207031 109.097656 115.753906 108.257812 L 103.542969 101.210938 C 102.09375 100.367188 100.234375 100.871094 99.398438 102.320312 C 98.558594 103.773438 99.058594 105.628906 100.507812 106.46875 Z M 100.507812 106.46875 " fill-opacity="1" fill-rule="nonzero"/><path fill="#3f3f3f" d="M 274.484375 199.902344 L 262.273438 192.851562 C 260.824219 192.015625 258.964844 192.511719 258.128906 193.964844 C 257.289062 195.414062 257.789062 197.273438 259.238281 198.109375 L 271.449219 205.160156 C 271.925781 205.4375 272.449219 205.566406 272.964844 205.566406 C 274.015625 205.566406 275.035156 205.019531 275.597656 204.050781 C 276.433594 202.59375 275.9375 200.738281 274.484375 199.902344 Z M 274.484375 199.902344 " fill-opacity="1" fill-rule="nonzero"/><path fill="#3f3f3f" d="M 142.570312 81.445312 C 143.132812 82.417969 144.152344 82.964844 145.203125 82.964844 C 145.714844 82.964844 146.238281 82.832031 146.71875 82.554688 C 148.171875 81.71875 148.667969 79.859375 147.828125 78.410156 L 140.777344 66.199219 C 139.941406 64.742188 138.085938 64.242188 136.632812 65.085938 C 135.175781 65.925781 134.683594 67.78125 135.519531 69.234375 Z M 142.570312 81.445312 " fill-opacity="1" fill-rule="nonzero"/><path fill="#3f3f3f" d="M 187.496094 71.625 C 189.171875 71.625 190.53125 70.269531 190.53125 68.589844 L 190.53125 54.488281 C 190.53125 52.808594 189.171875 51.453125 187.496094 51.453125 C 185.820312 51.453125 184.460938 52.808594 184.460938 54.488281 L 184.460938 68.589844 C 184.460938 70.269531 185.820312 71.625 187.496094 71.625 Z M 187.496094 71.625 " fill-opacity="1" fill-rule="nonzero"/><g clip-path="url(#c2d5699bdd)"><path fill="#3f3f3f" d="M 238.421875 99.398438 C 223.503906 85.269531 203.953125 78.097656 183.355469 79.230469 C 145.773438 81.273438 115.085938 112.347656 113.492188 149.972656 C 112.40625 175.621094 124.394531 199.621094 145.558594 214.175781 C 153.761719 219.808594 158.65625 228.777344 158.65625 238.15625 L 158.65625 252.035156 L 157.96875 252.035156 C 154.027344 252.035156 150.820312 255.242188 150.820312 259.183594 L 150.820312 270.382812 C 150.820312 274.324219 154.027344 277.53125 157.96875 277.53125 L 160.820312 277.53125 L 160.820312 298.257812 C 160.820312 306.492188 167.519531 313.195312 175.753906 313.195312 L 178.417969 313.195312 L 178.417969 316.984375 C 178.417969 320.761719 181.492188 323.84375 185.273438 323.84375 L 189.714844 323.84375 C 193.5 323.84375 196.570312 320.761719 196.570312 316.984375 L 196.570312 313.195312 L 199.234375 313.195312 C 207.472656 313.195312 214.171875 306.492188 214.171875 298.257812 L 214.171875 277.53125 L 217.019531 277.53125 C 220.960938 277.53125 224.167969 274.320312 224.167969 270.382812 L 224.167969 259.183594 C 224.167969 255.238281 220.957031 252.035156 217.019531 252.035156 L 216.332031 252.035156 L 216.332031 238.140625 C 216.332031 228.664062 221.019531 219.847656 228.863281 214.554688 C 249.335938 200.75 261.5625 177.804688 261.5625 153.179688 C 261.5625 132.628906 253.34375 113.527344 238.417969 99.390625 Z M 190.503906 316.992188 C 190.503906 317.425781 190.152344 317.777344 189.71875 317.777344 L 185.273438 317.777344 C 184.839844 317.777344 184.492188 317.425781 184.492188 316.992188 L 184.492188 313.203125 L 190.503906 313.203125 Z M 208.101562 298.265625 C 208.101562 303.15625 204.125 307.132812 199.238281 307.132812 L 175.757812 307.132812 C 170.867188 307.132812 166.894531 303.15625 166.894531 298.265625 L 166.894531 277.539062 L 208.105469 277.539062 L 208.105469 298.265625 Z M 218.101562 259.191406 L 218.101562 270.390625 C 218.101562 270.980469 217.617188 271.464844 217.027344 271.464844 L 157.972656 271.464844 C 157.375 271.464844 156.894531 270.980469 156.894531 270.390625 L 156.894531 259.191406 C 156.894531 258.59375 157.375 258.113281 157.972656 258.113281 L 217.027344 258.113281 C 217.617188 258.113281 218.101562 258.59375 218.101562 259.191406 Z M 225.476562 209.527344 C 215.953125 215.949219 210.265625 226.648438 210.265625 238.148438 L 210.265625 252.039062 L 164.726562 252.039062 L 164.726562 238.160156 C 164.726562 226.78125 158.847656 215.949219 149 209.175781 C 129.570312 195.8125 118.5625 173.78125 119.558594 150.234375 C 121.023438 115.699219 149.191406 87.171875 183.6875 85.292969 C 202.585938 84.285156 220.550781 90.839844 234.246094 103.808594 C 247.953125 116.785156 255.496094 134.324219 255.496094 153.191406 C 255.496094 175.792969 244.277344 196.855469 225.476562 209.53125 Z M 225.476562 209.527344 " fill-opacity="1" fill-rule="nonzero"/></g></svg>