<svg xmlns="http://www.w3.org/2000/svg" xmlns:xlink="http://www.w3.org/1999/xlink" width="500" zoomAndPan="magnify" viewBox="0 0 375 374.999991" height="500" preserveAspectRatio="xMidYMid meet" version="1.0"><defs><clipPath id="91446262cb"><path d="M 65.632812 65.632812 L 309.382812 65.632812 L 309.382812 309.382812 L 65.632812 309.382812 Z M 65.632812 65.632812 " clip-rule="nonzero"/></clipPath></defs><rect x="-37.5" width="450" fill="#ffffff" y="-37.499999" height="449.999989" fill-opacity="1"/><rect x="-37.5" width="450" fill="#3f3f3f" y="-37.499999" height="449.999989" fill-opacity="1"/><g clip-path="url(#91446262cb)"><path fill="#ffffff" d="M 309.332031 164.929688 L 247.464844 164.929688 C 250.109375 171.953125 251.5625 179.554688 251.5625 187.496094 C 251.5625 222.875 222.835938 251.589844 187.46875 251.589844 C 152.09375 251.589844 123.378906 222.875 123.378906 187.496094 C 123.378906 179.554688 124.824219 171.953125 127.46875 164.929688 L 65.605469 164.929688 L 65.605469 272.351562 C 65.605469 292.785156 82.171875 309.359375 102.617188 309.359375 L 272.324219 309.359375 C 292.761719 309.359375 309.332031 292.785156 309.332031 272.351562 Z M 187.46875 136.042969 C 215.867188 136.042969 238.921875 159.097656 238.921875 187.496094 C 238.921875 215.894531 215.867188 238.949219 187.46875 238.949219 C 159.070312 238.949219 136.015625 215.894531 136.015625 187.496094 C 136.015625 159.097656 159.070312 136.042969 187.46875 136.042969 Z M 65.605469 152.292969 L 133.914062 152.292969 C 145.386719 134.898438 165.09375 123.40625 187.46875 123.40625 C 209.839844 123.40625 229.554688 134.898438 241.019531 152.292969 L 309.332031 152.292969 L 309.332031 102.644531 C 309.332031 82.207031 292.761719 65.632812 272.324219 65.632812 L 102.617188 65.632812 C 82.171875 65.632812 65.605469 82.207031 65.605469 102.644531 Z M 259.683594 100.839844 C 267.65625 100.839844 274.128906 107.3125 274.128906 115.28125 C 274.128906 123.253906 267.65625 129.726562 259.683594 129.726562 C 251.714844 129.726562 245.242188 123.253906 245.242188 115.28125 C 245.242188 107.3125 251.714844 100.839844 259.683594 100.839844 Z M 259.683594 100.839844 " fill-opacity="1" fill-rule="evenodd"/></g></svg>