<svg xmlns="http://www.w3.org/2000/svg" xmlns:xlink="http://www.w3.org/1999/xlink" width="500" zoomAndPan="magnify" viewBox="0 0 375 374.999991" height="500" preserveAspectRatio="xMidYMid meet" version="1.0"><defs><clipPath id="56ab01136c"><path d="M 64.003906 64.003906 L 310.753906 64.003906 L 310.753906 310.753906 L 64.003906 310.753906 Z M 64.003906 64.003906 " clip-rule="nonzero"/></clipPath></defs><g clip-path="url(#56ab01136c)"><path fill="#ffffff" d="M 271.636719 310.988281 L 103.355469 310.988281 C 81.65625 310.988281 64.003906 293.335938 64.003906 271.636719 L 64.003906 103.355469 C 64.003906 81.65625 81.65625 64.003906 103.355469 64.003906 L 271.636719 64.003906 C 293.335938 64.003906 310.988281 81.65625 310.988281 103.355469 L 310.988281 271.636719 C 310.988281 293.335938 293.335938 310.988281 271.636719 310.988281 Z M 103.355469 73.6875 C 86.996094 73.6875 73.691406 86.996094 73.691406 103.355469 L 73.691406 271.636719 C 73.691406 287.992188 86.996094 301.300781 103.355469 301.300781 L 271.636719 301.300781 C 287.992188 301.300781 301.300781 287.992188 301.300781 271.636719 L 301.300781 103.355469 C 301.300781 86.996094 287.992188 73.6875 271.636719 73.6875 Z M 103.355469 73.6875 " fill-opacity="1" fill-rule="nonzero"/></g><path fill="#ffffff" d="M 139.066406 126.136719 C 139.066406 127.089844 138.972656 128.035156 138.789062 128.96875 C 138.601562 129.90625 138.328125 130.8125 137.960938 131.695312 C 137.597656 132.578125 137.148438 133.414062 136.621094 134.207031 C 136.089844 135 135.488281 135.734375 134.8125 136.410156 C 134.136719 137.082031 133.402344 137.683594 132.609375 138.214844 C 131.816406 138.746094 130.980469 139.191406 130.097656 139.558594 C 129.21875 139.921875 128.308594 140.199219 127.375 140.382812 C 126.4375 140.570312 125.492188 140.664062 124.539062 140.664062 C 123.585938 140.664062 122.640625 140.570312 121.703125 140.382812 C 120.769531 140.199219 119.859375 139.921875 118.980469 139.558594 C 118.097656 139.191406 117.261719 138.746094 116.46875 138.214844 C 115.675781 137.683594 114.941406 137.082031 114.265625 136.410156 C 113.589844 135.734375 112.988281 135 112.460938 134.207031 C 111.929688 133.414062 111.480469 132.578125 111.117188 131.695312 C 110.75 130.8125 110.476562 129.90625 110.289062 128.96875 C 110.105469 128.035156 110.011719 127.089844 110.011719 126.136719 C 110.011719 125.179688 110.105469 124.238281 110.289062 123.300781 C 110.476562 122.367188 110.75 121.457031 111.117188 120.574219 C 111.480469 119.695312 111.929688 118.855469 112.460938 118.0625 C 112.988281 117.269531 113.589844 116.535156 114.265625 115.863281 C 114.941406 115.1875 115.675781 114.585938 116.46875 114.054688 C 117.261719 113.523438 118.097656 113.078125 118.980469 112.710938 C 119.859375 112.347656 120.769531 112.070312 121.703125 111.886719 C 122.640625 111.699219 123.585938 111.605469 124.539062 111.605469 C 125.492188 111.605469 126.4375 111.699219 127.375 111.886719 C 128.308594 112.070312 129.21875 112.347656 130.097656 112.710938 C 130.980469 113.078125 131.816406 113.523438 132.609375 114.054688 C 133.402344 114.585938 134.136719 115.1875 134.8125 115.863281 C 135.488281 116.535156 136.089844 117.269531 136.621094 118.0625 C 137.148438 118.855469 137.597656 119.695312 137.960938 120.574219 C 138.328125 121.457031 138.601562 122.367188 138.789062 123.300781 C 138.972656 124.238281 139.066406 125.179688 139.066406 126.136719 Z M 139.066406 126.136719 " fill-opacity="1" fill-rule="nonzero"/><path fill="#ffffff" d="M 110.011719 170.078125 L 139.066406 170.078125 L 139.066406 264.757812 L 110.011719 264.757812 Z M 110.011719 170.078125 " fill-opacity="1" fill-rule="nonzero"/><path fill="#ffffff" d="M 255.296875 204.164062 L 255.296875 264.699219 L 225.269531 264.699219 L 225.269531 225.714844 C 225.269531 216.628906 217.894531 209.058594 208.5625 209.125 C 199.152344 209.191406 191.855469 217.105469 191.855469 225.984375 L 191.855469 264.757812 L 162.796875 264.757812 L 162.796875 170.078125 L 191.855469 170.078125 L 191.855469 187.828125 C 191.855469 187.828125 213.671875 163.476562 239.589844 178.449219 C 248.898438 183.824219 254.941406 193.507812 255.296875 204.164062 Z M 255.296875 204.164062 " fill-opacity="1" fill-rule="nonzero"/></svg>