<svg xmlns="http://www.w3.org/2000/svg" xmlns:xlink="http://www.w3.org/1999/xlink" width="500" zoomAndPan="magnify" viewBox="0 0 375 374.999991" height="500" preserveAspectRatio="xMidYMid meet" version="1.0"><defs><clipPath id="773b65953c"><path d="M 2.621094 0 L 375 0 L 375 372.378906 L 2.621094 372.378906 Z M 2.621094 0 " clip-rule="nonzero"/></clipPath><clipPath id="cb6ad5b8ed"><path d="M 188.808594 0 C 85.980469 0 2.621094 83.359375 2.621094 186.191406 C 2.621094 289.019531 85.980469 372.378906 188.808594 372.378906 C 291.640625 372.378906 375 289.019531 375 186.191406 C 375 83.359375 291.640625 0 188.808594 0 Z M 188.808594 0 " clip-rule="nonzero"/></clipPath><clipPath id="b5a85a100d"><path d="M 1.117188 0 L 375 0 L 375 372.742188 L 1.117188 372.742188 Z M 1.117188 0 " clip-rule="nonzero"/></clipPath></defs><g clip-path="url(#773b65953c)"><g clip-path="url(#cb6ad5b8ed)"><path fill="#3f3f3f" d="M 2.621094 0 L 375 0 L 375 372.378906 L 2.621094 372.378906 Z M 2.621094 0 " fill-opacity="1" fill-rule="nonzero"/></g></g><path fill="#ffffff" d="M 199.085938 70.363281 C 141.6875 70.363281 95.042969 117.007812 95.042969 174.410156 C 95.042969 193.226562 100.101562 211.410156 109.589844 227.378906 L 95.515625 278.136719 L 148.804688 265.488281 C 164.140625 274.027344 181.378906 278.453125 199.085938 278.453125 C 256.488281 278.453125 303.132812 231.808594 303.132812 174.410156 C 303.132812 117.007812 256.488281 70.363281 199.085938 70.363281 Z M 199.085938 261.378906 C 183.277344 261.378906 167.9375 257.109375 154.496094 249.203125 L 151.492188 247.460938 L 119.710938 254.894531 L 128.089844 224.691406 L 126.035156 221.53125 C 117.019531 207.613281 112.277344 191.167969 112.277344 174.410156 C 112.277344 126.496094 151.335938 87.441406 199.246094 87.441406 C 247.15625 87.441406 286.214844 126.496094 286.214844 174.410156 C 286.054688 222.476562 247 261.378906 199.085938 261.378906 Z M 199.085938 261.378906 " fill-opacity="1" fill-rule="nonzero"/><path fill="#ffffff" d="M 248.582031 211.882812 C 247.789062 216.152344 238.617188 221.53125 232.769531 223.109375 C 218.222656 226.90625 197.824219 215.835938 177.582031 198.285156 C 157.183594 180.574219 143.429688 161.917969 145.324219 147.054688 C 145.957031 141.203125 150.226562 131.242188 154.339844 129.976562 C 158.292969 128.710938 161.136719 129.816406 165.25 131.242188 C 167.304688 133.453125 169.835938 136.300781 172.679688 139.464844 C 176.476562 143.734375 179.007812 147.6875 180.746094 150.375 C 182.011719 152.585938 181.535156 155.433594 179.636719 157.171875 L 172.679688 163.339844 C 171.417969 164.445312 170.941406 166.34375 171.730469 167.765625 C 173.945312 172.351562 179.007812 181.839844 186.4375 188.324219 C 193.871094 194.808594 203.988281 198.445312 208.734375 200.023438 C 210.316406 200.5 212.054688 199.867188 213.003906 198.445312 L 218.222656 190.695312 C 219.644531 188.640625 222.488281 187.691406 224.863281 188.640625 C 227.707031 189.90625 231.976562 191.800781 236.722656 194.964844 C 240.359375 197.335938 243.363281 199.550781 245.894531 201.289062 C 247.789062 205.085938 249.371094 207.773438 248.582031 211.882812 Z M 248.582031 211.882812 " fill-opacity="1" fill-rule="nonzero"/><g clip-path="url(#b5a85a100d)"><path fill="#ffffff" d="M 188.808594 372.378906 C 85.398438 372.378906 1.117188 288.257812 1.117188 184.6875 C 1.117188 81.273438 85.398438 -3.007812 188.808594 -3.007812 C 292.222656 -3.007812 376.503906 81.273438 376.503906 184.6875 C 376.503906 288.257812 292.382812 372.378906 188.808594 372.378906 Z M 188.808594 7.273438 C 90.929688 7.273438 11.394531 86.808594 11.394531 184.6875 C 11.394531 282.566406 90.929688 362.101562 188.808594 362.101562 C 286.6875 362.101562 366.226562 282.566406 366.226562 184.6875 C 366.226562 86.808594 286.6875 7.273438 188.808594 7.273438 Z M 188.808594 7.273438 " fill-opacity="1" fill-rule="nonzero"/></g></svg>