<svg xmlns="http://www.w3.org/2000/svg" xmlns:xlink="http://www.w3.org/1999/xlink" width="500" zoomAndPan="magnify" viewBox="0 0 375 374.999991" height="500" preserveAspectRatio="xMidYMid meet" version="1.0"><rect x="-37.5" width="450" fill="#ffffff" y="-37.499999" height="449.999989" fill-opacity="1"/><rect x="-37.5" width="450" fill="#3f3f3f" y="-37.499999" height="449.999989" fill-opacity="1"/><path fill="#ffffff" d="M 195.21875 18.492188 C 104.867188 18.492188 31.441406 91.917969 31.441406 182.269531 C 31.441406 211.890625 39.40625 240.515625 54.339844 265.652344 L 32.1875 345.550781 L 116.066406 325.636719 C 140.210938 339.078125 167.339844 346.046875 195.21875 346.046875 C 285.570312 346.046875 358.996094 272.621094 358.996094 182.269531 C 358.996094 91.917969 285.570312 18.492188 195.21875 18.492188 Z M 195.21875 319.167969 C 170.328125 319.167969 146.183594 312.445312 125.027344 300 L 120.296875 297.261719 L 70.269531 308.960938 L 83.460938 261.421875 L 80.226562 256.445312 C 66.039062 234.539062 58.570312 208.652344 58.570312 182.269531 C 58.570312 106.851562 120.050781 45.375 195.46875 45.375 C 270.882812 45.375 332.363281 106.851562 332.363281 182.269531 C 332.113281 257.9375 270.636719 319.167969 195.21875 319.167969 Z M 195.21875 319.167969 " fill-opacity="1" fill-rule="nonzero"/><path fill="#ffffff" d="M 273.125 241.261719 C 271.878906 247.980469 257.445312 256.445312 248.234375 258.933594 C 225.335938 264.90625 193.226562 247.484375 161.367188 219.855469 C 129.257812 191.976562 107.605469 162.605469 110.589844 139.210938 C 111.585938 130 118.308594 114.320312 124.777344 112.328125 C 131 110.335938 135.480469 112.082031 141.953125 114.320312 C 145.1875 117.804688 149.171875 122.285156 153.652344 127.261719 C 159.625 133.984375 163.609375 140.207031 166.34375 144.4375 C 168.335938 147.921875 167.589844 152.402344 164.601562 155.140625 L 153.652344 164.847656 C 151.660156 166.589844 150.914062 169.578125 152.15625 171.816406 C 155.644531 179.035156 163.609375 193.96875 175.304688 204.175781 C 187.003906 214.378906 202.933594 220.105469 210.402344 222.59375 C 212.890625 223.339844 215.628906 222.34375 217.121094 220.105469 L 225.335938 207.90625 C 227.574219 204.671875 232.054688 203.179688 235.789062 204.671875 C 240.269531 206.664062 246.988281 209.648438 254.457031 214.628906 C 260.183594 218.363281 264.910156 221.847656 268.894531 224.585938 C 271.878906 230.558594 274.371094 234.789062 273.125 241.261719 Z M 273.125 241.261719 " fill-opacity="1" fill-rule="nonzero"/><path fill="#ffffff" d="M 179.039062 493.898438 C 16.257812 493.898438 -116.40625 361.480469 -116.40625 198.449219 C -116.40625 35.667969 16.257812 -96.996094 179.039062 -96.996094 C 341.820312 -96.996094 474.488281 35.667969 474.488281 198.449219 C 474.488281 361.480469 342.070312 493.898438 179.039062 493.898438 Z M 179.039062 -80.820312 C 24.96875 -80.820312 -100.230469 44.378906 -100.230469 198.449219 C -100.230469 352.519531 24.96875 477.71875 179.039062 477.71875 C 333.109375 477.71875 458.308594 352.519531 458.308594 198.449219 C 458.308594 44.378906 333.109375 -80.820312 179.039062 -80.820312 Z M 179.039062 -80.820312 " fill-opacity="1" fill-rule="nonzero"/></svg>