<svg xmlns="http://www.w3.org/2000/svg" xmlns:xlink="http://www.w3.org/1999/xlink" width="500" zoomAndPan="magnify" viewBox="0 0 375 374.999991" height="500" preserveAspectRatio="xMidYMid meet" version="1.0"><defs><clipPath id="17129b1588"><path d="M 2 2 L 373 2 L 373 372 L 2 372 Z M 2 2 " clip-rule="nonzero"/></clipPath></defs><rect x="-37.5" width="450" fill="#ffffff" y="-37.499999" height="449.999989" fill-opacity="1"/><rect x="-37.5" width="450" fill="#ffffff" y="-37.499999" height="449.999989" fill-opacity="1"/><g clip-path="url(#17129b1588)"><path fill="#fecc09" d="M 227.957031 187.589844 L 363.980469 51.570312 C 375.125 40.425781 375.125 22.355469 363.980469 11.210938 C 352.835938 0.0703125 334.765625 0.0664062 323.625 11.210938 L 187.601562 147.234375 L 51.578125 11.210938 C 40.433594 0.0664062 22.367188 0.0664062 11.222656 11.210938 C 0.078125 22.359375 0.078125 40.425781 11.222656 51.570312 L 147.242188 187.589844 L 11.222656 323.613281 C 0.078125 334.757812 0.078125 352.828125 11.222656 363.972656 C 16.792969 369.542969 24.097656 372.328125 31.402344 372.328125 C 38.703125 372.328125 46.007812 369.542969 51.578125 363.972656 L 187.601562 227.949219 L 323.625 363.972656 C 329.195312 369.542969 336.496094 372.328125 343.800781 372.328125 C 351.105469 372.328125 358.410156 369.542969 363.980469 363.972656 C 375.125 352.824219 375.125 334.757812 363.980469 323.613281 Z M 227.957031 187.589844 " fill-opacity="1" fill-rule="nonzero"/></g></svg>