<svg xmlns="http://www.w3.org/2000/svg" xmlns:xlink="http://www.w3.org/1999/xlink" width="500" zoomAndPan="magnify" viewBox="0 0 375 374.999991" height="500" preserveAspectRatio="xMidYMid meet" version="1.0"><defs><clipPath id="f6c72bd0f5"><path d="M 5.523438 0 L 369.273438 0 L 369.273438 375 L 5.523438 375 Z M 5.523438 0 " clip-rule="nonzero"/></clipPath><clipPath id="01af38dc5e"><path d="M 6.339844 346.78125 C 5.523438 345.554688 5.523438 344.332031 5.929688 343.105469 C 5.929688 342.695312 6.339844 341.878906 6.75 341.472656 L 184.023438 167.460938 C 185.660156 165.828125 188.109375 165.828125 189.742188 167.460938 L 367.429688 341.472656 C 368.246094 342.289062 368.65625 343.105469 368.65625 344.332031 L 369.472656 370.472656 C 369.472656 371.699219 369.0625 372.515625 368.246094 373.332031 C 367.429688 374.558594 366.613281 374.964844 365.386719 374.964844 L 295.945312 374.964844 C 294.722656 374.964844 293.90625 374.558594 293.085938 373.742188 L 186.882812 268.355469 L 81.5 373.742188 C 80.683594 374.558594 79.863281 374.964844 78.640625 374.964844 L 26.761719 374.964844 C 25.539062 374.964844 23.902344 374.148438 23.496094 372.921875 Z M 23.496094 206.265625 C 24.3125 207.492188 25.539062 208.308594 26.761719 208.308594 L 78.640625 208.308594 C 79.863281 208.308594 80.683594 207.898438 81.5 207.082031 L 186.882812 101.699219 L 293.085938 207.082031 C 293.90625 207.898438 294.722656 208.308594 295.945312 208.308594 L 365.386719 208.308594 C 366.613281 208.308594 367.429688 207.898438 368.246094 207.082031 C 369.0625 206.265625 369.472656 205.042969 369.472656 204.222656 L 368.65625 178.082031 C 368.65625 176.855469 368.246094 176.039062 367.429688 175.222656 L 190.152344 0.394531 C 188.519531 -1.238281 186.066406 -1.238281 184.433594 0.394531 L 7.15625 174.40625 C 6.75 174.8125 6.339844 175.222656 6.339844 176.039062 C 5.929688 177.265625 5.929688 178.898438 6.75 179.714844 Z M 23.496094 206.265625 " clip-rule="nonzero"/></clipPath></defs><g clip-path="url(#f6c72bd0f5)"><g clip-path="url(#01af38dc5e)"><path fill="#fecc09" d="M 5.523438 0 L 5.523438 374.964844 L 369.273438 374.964844 L 369.273438 0 Z M 5.523438 0 " fill-opacity="1" fill-rule="nonzero"/></g></g></svg>