<svg xmlns="http://www.w3.org/2000/svg" xmlns:xlink="http://www.w3.org/1999/xlink" width="500" zoomAndPan="magnify" viewBox="0 0 375 374.999991" height="500" preserveAspectRatio="xMidYMid meet" version="1.0"><defs><clipPath id="13d5721245"><path d="M 187.5 0 C 83.945312 0 0 83.945312 0 187.5 C 0 291.054688 83.945312 375 187.5 375 C 291.054688 375 375 291.054688 375 187.5 C 375 83.945312 291.054688 0 187.5 0 Z M 187.5 0 " clip-rule="nonzero"/></clipPath><clipPath id="02cb9e7d50"><path d="M 61.136719 61.136719 L 313.886719 61.136719 L 313.886719 313.886719 L 61.136719 313.886719 Z M 61.136719 61.136719 " clip-rule="nonzero"/></clipPath></defs><rect x="-37.5" width="450" fill="#ffffff" y="-37.499999" height="449.999989" fill-opacity="1"/><rect x="-37.5" width="450" fill="#ffffff" y="-37.499999" height="449.999989" fill-opacity="1"/><g clip-path="url(#13d5721245)"><rect x="-37.5" width="450" fill="#fecc09" y="-37.499999" height="449.999989" fill-opacity="1"/></g><g clip-path="url(#02cb9e7d50)"><path fill="#3f3f3f" d="M 88.875 125.859375 L 64.21875 101.203125 L 95.039062 95.039062 L 101.203125 64.21875 L 125.859375 88.875 L 125.859375 121.5 L 169.734375 165.375 L 175.171875 138.1875 L 187.5 187.5 L 138.1875 175.171875 L 165.375 169.734375 L 121.5 125.859375 Z M 187.5 212.15625 C 176.261719 212.15625 166.886719 204.59375 163.917969 194.3125 L 138.207031 187.886719 C 138.417969 214.941406 160.394531 236.8125 187.5 236.8125 C 214.734375 236.8125 236.8125 214.734375 236.8125 187.5 C 236.8125 160.394531 214.9375 138.414062 187.882812 138.207031 L 194.3125 163.917969 C 204.589844 166.886719 212.15625 176.261719 212.15625 187.5 C 212.15625 201.117188 201.117188 212.15625 187.5 212.15625 Z M 120.753906 138.1875 L 102.175781 138.1875 C 93.765625 152.707031 88.875 169.515625 88.875 187.5 C 88.875 241.96875 133.03125 286.125 187.5 286.125 C 241.96875 286.125 286.125 241.96875 286.125 187.5 C 286.125 133.03125 241.96875 88.875 187.5 88.875 C 169.515625 88.875 152.707031 93.765625 138.1875 102.175781 L 138.1875 120.753906 L 144.6875 127.253906 C 156.777344 118.644531 171.527344 113.53125 187.5 113.53125 C 228.351562 113.53125 261.46875 146.648438 261.46875 187.5 C 261.46875 228.351562 228.351562 261.46875 187.5 261.46875 C 146.648438 261.46875 113.53125 228.351562 113.53125 187.5 C 113.53125 171.527344 118.644531 156.777344 127.253906 144.6875 Z M 187.5 61.136719 C 167.300781 61.136719 147.4375 66.015625 129.625 75.207031 L 134.171875 79.753906 C 150.664062 71.589844 168.945312 67.300781 187.5 67.300781 C 253.773438 67.300781 307.699219 121.222656 307.699219 187.5 C 307.699219 253.777344 253.773438 307.699219 187.5 307.699219 C 121.222656 307.699219 67.300781 253.777344 67.300781 187.5 C 67.300781 168.941406 71.59375 150.660156 79.753906 134.171875 L 75.203125 129.621094 C 66.015625 147.433594 61.136719 167.304688 61.136719 187.5 C 61.136719 257.175781 117.824219 313.863281 187.5 313.863281 C 257.175781 313.863281 313.863281 257.175781 313.863281 187.5 C 313.863281 117.824219 257.175781 61.136719 187.5 61.136719 Z M 187.5 61.136719 " fill-opacity="1" fill-rule="nonzero"/></g></svg>