<svg xmlns="http://www.w3.org/2000/svg" xmlns:xlink="http://www.w3.org/1999/xlink" width="500" zoomAndPan="magnify" viewBox="0 0 375 374.999991" height="500" preserveAspectRatio="xMidYMid meet" version="1.0"><defs><clipPath id="5107a06ed6"><path d="M 0 0 L 372.378906 0 L 372.378906 372.378906 L 0 372.378906 Z M 0 0 " clip-rule="nonzero"/></clipPath><clipPath id="6fe5a439b3"><path d="M 186.191406 0 C 83.359375 0 0 83.359375 0 186.191406 C 0 289.019531 83.359375 372.378906 186.191406 372.378906 C 289.019531 372.378906 372.378906 289.019531 372.378906 186.191406 C 372.378906 83.359375 289.019531 0 186.191406 0 Z M 186.191406 0 " clip-rule="nonzero"/></clipPath><clipPath id="ea7a897c34"><path d="M 177 168 L 326.363281 168 L 326.363281 279 L 177 279 Z M 177 168 " clip-rule="nonzero"/></clipPath><clipPath id="f94b461dc2"><path d="M 52 96.113281 L 117 96.113281 L 117 161 L 52 161 Z M 52 96.113281 " clip-rule="nonzero"/></clipPath><clipPath id="ac596f0465"><path d="M 256 96.113281 L 321 96.113281 L 321 161 L 256 161 Z M 256 96.113281 " clip-rule="nonzero"/></clipPath></defs><g clip-path="url(#5107a06ed6)"><g clip-path="url(#6fe5a439b3)"><path fill="#fecc09" d="M 0 0 L 372.378906 0 L 372.378906 372.378906 L 0 372.378906 Z M 0 0 " fill-opacity="1" fill-rule="nonzero"/></g></g><path fill="#3f3f3f" d="M 184.410156 142.648438 C 187.222656 139.742188 190.296875 137.542969 194.089844 136.527344 C 205.046875 133.597656 216.347656 141.039062 218.25 152.265625 C 219.476562 159.496094 216.863281 165.550781 212.863281 171.203125 C 207.378906 178.945312 200.015625 184.625 192.105469 189.660156 C 189.917969 191.050781 187.628906 192.289062 185.402344 193.621094 C 184.78125 193.992188 184.265625 194.160156 183.53125 193.746094 C 174.09375 188.460938 165.167969 182.515625 158.089844 174.183594 C 154.222656 169.636719 151.078125 164.679688 150.28125 158.605469 C 148.964844 148.574219 155.628906 138.015625 166.441406 136.15625 C 172.839844 135.058594 178.289062 137.011719 182.988281 141.351562 C 183.410156 141.742188 183.839844 142.128906 184.410156 142.648438 " fill-opacity="1" fill-rule="nonzero"/><g clip-path="url(#ea7a897c34)"><path fill="#3f3f3f" d="M 326.421875 278.644531 C 301.121094 278.644531 276.4375 278.644531 251.136719 278.644531 C 251.136719 261.664062 251.136719 244.863281 251.136719 226.648438 C 238.882812 236.785156 226.214844 243.375 212.078125 247.136719 C 205.800781 248.804688 199.445312 249.941406 193.035156 250.652344 C 184.988281 251.542969 178.511719 246.65625 177.398438 239.371094 C 176.175781 231.351562 180.519531 225.09375 188.847656 223.246094 C 193.40625 222.238281 198.082031 221.777344 202.636719 220.765625 C 219.726562 216.972656 233.011719 207.378906 243.675781 193.75 C 247.109375 189.363281 250.601562 184.96875 254.53125 181.046875 C 262.695312 172.902344 272.085938 167.429688 284.289062 168.484375 C 288.945312 168.890625 293.667969 168.421875 298.347656 168.609375 C 314.488281 169.253906 326.347656 181.449219 326.398438 197.585938 C 326.480469 224.375 326.421875 251.167969 326.421875 278.644531 " fill-opacity="1" fill-rule="nonzero"/></g><path fill="#3f3f3f" d="M 46.105469 278.890625 C 46.105469 251.085938 45.84375 224.070312 46.203125 197.066406 C 46.410156 181.097656 59.023438 169.101562 75.027344 168.5625 C 75.917969 168.53125 76.828125 168.664062 77.707031 168.535156 C 99.628906 165.300781 115.546875 174.523438 128 191.980469 C 139.351562 207.894531 154.800781 217.957031 174.933594 221.496094 C 167.53125 229.976562 167.007812 239.078125 171.664062 249.464844 C 152.945312 245.582031 136.839844 239.027344 122.046875 226.605469 C 122.046875 244.777344 122.046875 261.421875 122.046875 278.890625 C 109.109375 278.890625 96.699219 278.890625 84.28125 278.890625 C 71.800781 278.890625 59.320312 278.890625 46.105469 278.890625 " fill-opacity="1" fill-rule="nonzero"/><g clip-path="url(#f94b461dc2)"><path fill="#3f3f3f" d="M 116.066406 129.164062 C 115.839844 146.863281 101.515625 160.996094 83.945312 160.851562 C 66.074219 160.707031 51.667969 145.941406 52.0625 128.171875 C 52.464844 110.140625 67.019531 96.113281 84.949219 96.480469 C 102.417969 96.839844 116.292969 111.414062 116.066406 129.164062 " fill-opacity="1" fill-rule="nonzero"/></g><g clip-path="url(#ac596f0465)"><path fill="#3f3f3f" d="M 288.613281 96.480469 C 306.4375 96.449219 320.984375 111.027344 320.90625 128.84375 C 320.832031 146.382812 306.496094 160.738281 288.945312 160.851562 C 271.171875 160.96875 256.539062 146.3125 256.652344 128.503906 C 256.757812 110.960938 271.179688 96.511719 288.613281 96.480469 " fill-opacity="1" fill-rule="nonzero"/></g></svg>