<svg xmlns="http://www.w3.org/2000/svg" xmlns:xlink="http://www.w3.org/1999/xlink" width="500" zoomAndPan="magnify" viewBox="0 0 375 374.999991" height="500" preserveAspectRatio="xMidYMid meet" version="1.0"><defs><clipPath id="5517bf1d07"><path d="M 0 0 L 372.378906 0 L 372.378906 372.378906 L 0 372.378906 Z M 0 0 " clip-rule="nonzero"/></clipPath><clipPath id="6c477ccd64"><path d="M 186.191406 0 C 83.359375 0 0 83.359375 0 186.191406 C 0 289.019531 83.359375 372.378906 186.191406 372.378906 C 289.019531 372.378906 372.378906 289.019531 372.378906 186.191406 C 372.378906 83.359375 289.019531 0 186.191406 0 Z M 186.191406 0 " clip-rule="nonzero"/></clipPath><clipPath id="db96c6cbae"><path d="M 72 189 L 303 189 L 303 283.429688 L 72 283.429688 Z M 72 189 " clip-rule="nonzero"/></clipPath><clipPath id="1c282f2502"><path d="M 118 91.429688 L 259 91.429688 L 259 154 L 118 154 Z M 118 91.429688 " clip-rule="nonzero"/></clipPath></defs><rect x="-37.5" width="450" fill="#ffffff" y="-37.499999" height="449.999989" fill-opacity="1"/><rect x="-37.5" width="450" fill="#ffffff" y="-37.499999" height="449.999989" fill-opacity="1"/><g clip-path="url(#5517bf1d07)"><g clip-path="url(#6c477ccd64)"><path fill="#fecc09" d="M 0 0 L 372.378906 0 L 372.378906 372.378906 L 0 372.378906 Z M 0 0 " fill-opacity="1" fill-rule="nonzero"/></g></g><path fill="#3f3f3f" d="M 187.730469 239.722656 C 187.683594 239.632812 187.613281 239.492188 187.542969 239.355469 C 187.636719 239.535156 187.695312 239.652344 187.730469 239.722656 Z M 187.730469 239.722656 " fill-opacity="1" fill-rule="nonzero"/><path fill="#3f3f3f" d="M 187.613281 239.496094 C 187.675781 239.617188 187.664062 239.59375 187.613281 239.496094 Z M 187.613281 239.496094 " fill-opacity="1" fill-rule="nonzero"/><g clip-path="url(#db96c6cbae)"><path fill="#3f3f3f" d="M 296.328125 264.980469 C 297.179688 264.984375 298.027344 264.988281 298.894531 264.988281 C 301.640625 264.988281 303.386719 261.933594 302.035156 259.570312 L 295.792969 248.726562 C 296.457031 248.722656 297.125 248.71875 297.796875 248.71875 C 300.425781 248.71875 302.226562 245.859375 301.046875 243.496094 L 281.605469 191.996094 C 280.996094 190.78125 279.726562 189.988281 278.367188 189.988281 C 253.480469 189.988281 230.039062 194.621094 212.359375 203.035156 C 200.324219 208.765625 191.808594 221.882812 187.308594 229.730469 C 182.8125 221.882812 174.296875 208.765625 162.261719 203.035156 C 144.585938 194.621094 121.144531 189.988281 96.257812 189.988281 C 94.917969 189.988281 93.617188 190.773438 93.027344 191.984375 L 73.449219 243.484375 C 72.253906 245.847656 74.066406 248.71875 76.691406 248.71875 C 77.730469 248.71875 78.761719 248.722656 79.785156 248.730469 L 73.546875 259.566406 C 72.234375 261.941406 73.910156 264.988281 76.683594 264.988281 C 77.550781 264.988281 78.402344 264.984375 79.25 264.980469 L 72.851562 277.609375 C 71.5625 280.1875 73.765625 283.226562 76.640625 282.816406 L 166.285156 274.71875 C 168.191406 283.464844 176.1875 283.0625 187.382812 283.0625 C 198.578125 283.0625 206.578125 283.464844 208.484375 274.71875 L 298.136719 282.816406 C 302.035156 283.429688 303.105469 278.355469 302.730469 277.609375 Z M 86.773438 241.59375 C 86.324219 241.5 85.863281 241.492188 85.417969 241.570312 C 84.453125 241.550781 83.488281 241.535156 82.511719 241.523438 L 98.480469 197.242188 C 121.476562 197.507812 142.949219 201.851562 159.15625 209.5625 C 174.160156 216.707031 182.785156 231.824219 183.683594 241.351562 L 183.707031 268.277344 C 167.765625 256.519531 131.445312 242.550781 86.773438 241.59375 Z M 290.039062 241.554688 C 289.675781 241.503906 289.308594 241.511719 288.941406 241.570312 C 240.839844 242.46875 205.726562 254.945312 191 268.132812 L 190.933594 241.351562 C 191.835938 231.824219 200.464844 216.707031 215.46875 209.5625 C 231.671875 201.851562 253.144531 197.507812 276.140625 197.242188 L 291.996094 241.523438 C 291.339844 241.53125 290.6875 241.542969 290.039062 241.554688 Z M 290.039062 241.554688 " fill-opacity="1" fill-rule="nonzero"/></g><path fill="#3f3f3f" d="M 187.605469 239.480469 C 187.628906 239.523438 187.644531 239.558594 187.667969 239.597656 C 187.628906 239.527344 187.605469 239.480469 187.605469 239.480469 Z M 187.605469 239.480469 " fill-opacity="1" fill-rule="nonzero"/><g clip-path="url(#1c282f2502)"><path fill="#3f3f3f" d="M 227.585938 91.578125 C 211.574219 91.578125 197.023438 101.230469 188.5625 110.28125 C 180.097656 101.230469 165.546875 91.578125 149.535156 91.578125 C 132.53125 91.578125 118.699219 105.414062 118.699219 122.417969 C 118.699219 139.421875 132.53125 153.257812 149.535156 153.257812 C 165.53125 153.257812 180.089844 143.605469 188.5625 134.554688 C 197.03125 143.605469 211.589844 153.257812 227.585938 153.257812 C 244.589844 153.257812 258.425781 139.421875 258.425781 122.417969 C 258.425781 105.414062 244.589844 91.578125 227.585938 91.578125 Z M 227.585938 138.457031 C 212.679688 138.457031 201.320312 126.800781 197.59375 122.4375 C 203.148438 115.867188 214.570312 106.378906 227.585938 106.378906 C 236.429688 106.378906 243.625 113.574219 243.625 122.417969 C 243.625 131.261719 236.429688 138.457031 227.585938 138.457031 Z M 149.535156 138.457031 C 140.695312 138.457031 133.5 131.261719 133.5 122.417969 C 133.5 113.574219 140.695312 106.378906 149.535156 106.378906 C 164.4375 106.378906 175.796875 118.035156 179.53125 122.398438 C 173.976562 128.96875 162.558594 138.457031 149.535156 138.457031 Z M 149.535156 138.457031 " fill-opacity="1" fill-rule="nonzero"/></g></svg>