<svg xmlns="http://www.w3.org/2000/svg" xmlns:xlink="http://www.w3.org/1999/xlink" width="500" zoomAndPan="magnify" viewBox="0 0 375 374.999991" height="500" preserveAspectRatio="xMidYMid meet" version="1.0"><defs><clipPath id="fe45e01f3d"><path d="M 2.621094 0 L 375 0 L 375 372.378906 L 2.621094 372.378906 Z M 2.621094 0 " clip-rule="nonzero"/></clipPath><clipPath id="cd94046145"><path d="M 188.808594 0 C 85.980469 0 2.621094 83.359375 2.621094 186.191406 C 2.621094 289.019531 85.980469 372.378906 188.808594 372.378906 C 291.640625 372.378906 375 289.019531 375 186.191406 C 375 83.359375 291.640625 0 188.808594 0 Z M 188.808594 0 " clip-rule="nonzero"/></clipPath><clipPath id="8b74265705"><path d="M 67 97 L 268 97 L 268 306 L 67 306 Z M 67 97 " clip-rule="nonzero"/></clipPath><clipPath id="afa4d52815"><path d="M 66.617188 114.519531 L 66.617188 260.480469 C 66.617188 288.648438 89.449219 311.480469 117.617188 311.480469 L 257.382812 311.480469 C 285.550781 311.480469 308.382812 288.648438 308.382812 260.480469 L 308.382812 114.519531 C 308.382812 86.351562 285.550781 63.519531 257.382812 63.519531 L 117.617188 63.519531 C 89.449219 63.519531 66.617188 86.351562 66.617188 114.519531 Z M 66.617188 114.519531 " clip-rule="nonzero"/></clipPath><clipPath id="e7545b487c"><path d="M 186 63.621094 L 308.117188 63.621094 L 308.117188 188.953125 L 186 188.953125 Z M 186 63.621094 " clip-rule="nonzero"/></clipPath><clipPath id="5ab842a2a9"><path d="M 66.617188 114.519531 L 66.617188 260.480469 C 66.617188 288.648438 89.449219 311.480469 117.617188 311.480469 L 257.382812 311.480469 C 285.550781 311.480469 308.382812 288.648438 308.382812 260.480469 L 308.382812 114.519531 C 308.382812 86.351562 285.550781 63.519531 257.382812 63.519531 L 117.617188 63.519531 C 89.449219 63.519531 66.617188 86.351562 66.617188 114.519531 Z M 66.617188 114.519531 " clip-rule="nonzero"/></clipPath><clipPath id="ffdc741cfc"><path d="M 174 97 L 274 97 L 274 199 L 174 199 Z M 174 97 " clip-rule="nonzero"/></clipPath><clipPath id="f56d1f5f21"><path d="M 66.617188 114.519531 L 66.617188 260.480469 C 66.617188 288.648438 89.449219 311.480469 117.617188 311.480469 L 257.382812 311.480469 C 285.550781 311.480469 308.382812 288.648438 308.382812 260.480469 L 308.382812 114.519531 C 308.382812 86.351562 285.550781 63.519531 257.382812 63.519531 L 117.617188 63.519531 C 89.449219 63.519531 66.617188 86.351562 66.617188 114.519531 Z M 66.617188 114.519531 " clip-rule="nonzero"/></clipPath><clipPath id="2e7ec0d964"><path d="M 167 135 L 236 135 L 236 206 L 167 206 Z M 167 135 " clip-rule="nonzero"/></clipPath><clipPath id="d91a42a8d8"><path d="M 66.617188 114.519531 L 66.617188 260.480469 C 66.617188 288.648438 89.449219 311.480469 117.617188 311.480469 L 257.382812 311.480469 C 285.550781 311.480469 308.382812 288.648438 308.382812 260.480469 L 308.382812 114.519531 C 308.382812 86.351562 285.550781 63.519531 257.382812 63.519531 L 117.617188 63.519531 C 89.449219 63.519531 66.617188 86.351562 66.617188 114.519531 Z M 66.617188 114.519531 " clip-rule="nonzero"/></clipPath></defs><rect x="-37.5" width="450" fill="#ffffff" y="-37.499999" height="449.999989" fill-opacity="1"/><rect x="-37.5" width="450" fill="#ffffff" y="-37.499999" height="449.999989" fill-opacity="1"/><g clip-path="url(#fe45e01f3d)"><g clip-path="url(#cd94046145)"><path fill="#fecc09" d="M 2.621094 0 L 375 0 L 375 372.378906 L 2.621094 372.378906 Z M 2.621094 0 " fill-opacity="1" fill-rule="nonzero"/></g></g><g clip-path="url(#8b74265705)"><g clip-path="url(#afa4d52815)"><path fill="#3f3f3f" d="M 115.519531 98.332031 C 117.101562 99.234375 117.441406 100.976562 118.167969 102.539062 C 119.027344 104.394531 120.160156 106.210938 121.121094 108.039062 C 123.292969 112.179688 125.472656 116.320312 127.65625 120.457031 C 131.96875 128.640625 136.292969 136.816406 140.601562 144.996094 C 141.242188 146.214844 141.894531 147.472656 142.011719 148.84375 C 142.324219 152.519531 136.355469 156.660156 133.574219 158.375 C 126.5 162.738281 119.664062 165.984375 114.808594 173.128906 C 114.046875 174.246094 113.347656 175.4375 113.066406 176.761719 C 112.375 180.015625 115.550781 184.511719 116.929688 187.34375 C 118.761719 191.101562 120.730469 194.789062 122.835938 198.402344 C 127.0625 205.65625 131.835938 212.597656 137.128906 219.121094 C 151 236.210938 168.570312 250.460938 188.921875 259.070312 C 190.332031 259.667969 199.039062 250.390625 200.3125 248.898438 C 203.5625 245.097656 206.371094 240.964844 209.992188 237.484375 C 214.925781 232.75 218.976562 230.8125 225.007812 235.007812 C 237.042969 243.375 249.328125 251.378906 261.847656 259.003906 C 279.074219 269.496094 254.070312 296.097656 242.921875 300.875 C 218.367188 311.386719 189.308594 302.28125 167.207031 290.109375 C 122.558594 265.53125 87.984375 223.230469 72.78125 174.585938 C 69.175781 163.042969 66.597656 150.933594 67.792969 138.894531 C 69.550781 121.140625 81.34375 105.738281 98.363281 100.101562 C 102.914062 98.59375 107.699219 97.789062 112.496094 97.765625 C 113.40625 97.761719 114.347656 97.789062 115.179688 98.160156 C 115.300781 98.214844 115.414062 98.273438 115.519531 98.332031 " fill-opacity="1" fill-rule="nonzero"/></g></g><g clip-path="url(#e7545b487c)"><g clip-path="url(#5ab842a2a9)"><path fill="#3f3f3f" d="M 297.902344 135.515625 C 292.019531 122.394531 283.929688 110.5 273.851562 100.160156 C 263.777344 89.816406 252.097656 81.421875 239.132812 75.199219 C 225.777344 68.792969 211.496094 64.914062 196.683594 63.664062 C 193.566406 63.402344 190.578125 64.347656 188.496094 66.265625 C 186.886719 67.746094 186 69.660156 186.003906 71.664062 C 186.003906 76.144531 190.066406 80.003906 195.257812 80.449219 C 247.117188 84.816406 288.539062 127.28125 291.515625 179.238281 L 291.515625 179.242188 C 291.820312 184.441406 295.578125 188.601562 300.058594 188.71875 C 300.253906 188.722656 300.445312 188.722656 300.640625 188.710938 C 302.433594 188.601562 304.148438 187.785156 305.519531 186.367188 C 307.492188 184.335938 308.515625 181.375 308.332031 178.25 C 307.472656 163.40625 303.960938 149.03125 297.902344 135.515625 " fill-opacity="1" fill-rule="nonzero"/></g></g><g clip-path="url(#ffdc741cfc)"><g clip-path="url(#f56d1f5f21)"><path fill="#3f3f3f" d="M 246.085938 127.214844 C 238.074219 118.992188 228.796875 112.289062 218.503906 107.292969 C 207.914062 102.152344 196.582031 98.988281 184.824219 97.886719 C 181.90625 97.609375 179.121094 98.464844 177.1875 100.234375 C 175.726562 101.566406 174.921875 103.289062 174.925781 105.089844 L 174.902344 106.636719 L 174.902344 106.664062 C 174.90625 108.710938 175.824219 110.667969 177.484375 112.171875 C 179.023438 113.566406 181.046875 114.449219 183.21875 114.65625 C 223.257812 118.40625 254.339844 150.246094 256.976562 190.371094 L 256.976562 190.375 C 257.191406 192.542969 257.972656 194.609375 259.328125 196.183594 C 260.789062 197.882812 262.726562 198.851562 264.773438 198.90625 L 266.351562 198.925781 C 266.523438 198.929688 266.699219 198.925781 266.871094 198.917969 C 268.484375 198.820312 270.027344 198.082031 271.269531 196.792969 C 273.085938 194.902344 274.015625 192.140625 273.816406 189.21875 C 273.019531 177.433594 270.148438 166.023438 265.285156 155.304688 C 260.558594 144.890625 254.097656 135.4375 246.085938 127.214844 " fill-opacity="1" fill-rule="nonzero"/></g></g><g clip-path="url(#2e7ec0d964)"><g clip-path="url(#d91a42a8d8)"><path fill="#3f3f3f" d="M 229.511719 174.355469 C 226.316406 167.5 222.011719 161.269531 216.710938 155.835938 C 211.417969 150.398438 205.300781 145.933594 198.535156 142.5625 C 191.578125 139.097656 184.128906 136.886719 176.394531 135.996094 C 173.792969 135.691406 171.226562 136.425781 169.523438 137.953125 C 168.296875 139.050781 167.625 140.472656 167.628906 141.960938 L 167.578125 145.964844 L 167.578125 146 C 167.585938 147.710938 168.355469 149.351562 169.738281 150.617188 C 170.996094 151.769531 172.667969 152.519531 174.445312 152.730469 C 198 155.441406 216.617188 174.554688 218.71875 198.167969 L 218.722656 198.171875 C 218.886719 199.953125 219.59375 201.640625 220.707031 202.925781 C 221.9375 204.34375 223.558594 205.152344 225.273438 205.210938 L 229.3125 205.261719 C 229.453125 205.265625 229.597656 205.265625 229.738281 205.253906 C 231.070312 205.179688 232.34375 204.554688 233.367188 203.472656 C 234.9375 201.8125 235.734375 199.265625 235.5 196.660156 C 234.808594 188.902344 232.792969 181.398438 229.511719 174.355469 " fill-opacity="1" fill-rule="nonzero"/></g></g></svg>