<svg xmlns="http://www.w3.org/2000/svg" xmlns:xlink="http://www.w3.org/1999/xlink" width="500" zoomAndPan="magnify" viewBox="0 0 375 374.999991" height="500" preserveAspectRatio="xMidYMid meet" version="1.0"><defs><clipPath id="111911973a"><path d="M 2.621094 0 L 375 0 L 375 372.378906 L 2.621094 372.378906 Z M 2.621094 0 " clip-rule="nonzero"/></clipPath><clipPath id="ffbc81c159"><path d="M 188.808594 0 C 85.980469 0 2.621094 83.359375 2.621094 186.191406 C 2.621094 289.019531 85.980469 372.378906 188.808594 372.378906 C 291.640625 372.378906 375 289.019531 375 186.191406 C 375 83.359375 291.640625 0 188.808594 0 Z M 188.808594 0 " clip-rule="nonzero"/></clipPath><clipPath id="28c92d2cac"><path d="M 53 72 L 325 72 L 325 304.648438 L 53 304.648438 Z M 53 72 " clip-rule="nonzero"/></clipPath></defs><rect x="-37.5" width="450" fill="#ffffff" y="-37.499999" height="449.999989" fill-opacity="1"/><rect x="-37.5" width="450" fill="#ffffff" y="-37.499999" height="449.999989" fill-opacity="1"/><g clip-path="url(#111911973a)"><g clip-path="url(#ffbc81c159)"><path fill="#fecc09" d="M 2.621094 0 L 375 0 L 375 372.378906 L 2.621094 372.378906 Z M 2.621094 0 " fill-opacity="1" fill-rule="nonzero"/></g></g><g clip-path="url(#28c92d2cac)"><path fill="#3f3f3f" d="M 309.800781 119.046875 L 238.816406 119.046875 C 236.511719 91.390625 212.3125 70.648438 184.65625 72.953125 C 159.996094 75.027344 140.636719 94.386719 138.5625 119.046875 L 67.808594 119.046875 C 59.972656 119.046875 53.519531 125.5 53.289062 133.335938 L 53.289062 289.824219 C 53.289062 297.890625 59.742188 304.113281 67.808594 304.34375 L 309.800781 304.34375 C 317.867188 304.34375 324.089844 297.890625 324.320312 289.824219 L 324.320312 133.335938 C 324.089844 125.5 317.636719 119.046875 309.800781 119.046875 Z M 61.585938 289.824219 L 61.585938 133.335938 C 61.585938 132.875 61.585938 132.414062 61.816406 131.953125 L 151.929688 211.464844 L 61.585938 290.976562 C 61.585938 290.746094 61.585938 290.285156 61.585938 289.824219 Z M 188.804688 173.207031 C 215.078125 173.207031 236.742188 153.15625 238.816406 126.882812 L 309.339844 126.882812 L 193.644531 228.75 C 190.878906 231.285156 186.5 231.285156 183.734375 228.75 L 68.039062 127.113281 L 138.5625 127.113281 C 140.867188 153.15625 162.53125 173.207031 188.804688 173.207031 Z M 158.152344 216.996094 L 178.664062 234.972656 C 184.65625 240.042969 193.414062 240.042969 199.175781 234.972656 L 219.6875 216.996094 L 309.570312 296.277344 L 68.039062 296.277344 Z M 225.679688 211.464844 L 316.023438 131.953125 C 316.023438 132.414062 316.253906 132.875 316.253906 133.335938 L 316.253906 289.824219 C 316.253906 290.285156 316.253906 290.746094 316.023438 291.207031 Z M 188.804688 80.789062 C 212.082031 80.789062 230.980469 99.6875 230.980469 122.964844 C 230.980469 146.242188 212.082031 165.140625 188.804688 165.140625 C 165.527344 165.140625 146.628906 146.242188 146.628906 122.964844 C 146.628906 99.6875 165.527344 80.789062 188.804688 80.789062 Z M 188.804688 80.789062 " fill-opacity="1" fill-rule="nonzero"/></g><path fill="#3f3f3f" d="M 192.261719 95.308594 L 185.347656 95.308594 C 171.980469 95.308594 161.148438 106.140625 161.148438 119.507812 L 161.148438 126.421875 C 161.148438 139.789062 171.980469 150.621094 185.347656 150.621094 L 189.265625 150.621094 C 191.570312 150.621094 193.183594 148.777344 193.183594 146.472656 C 193.183594 144.167969 191.339844 142.324219 189.265625 142.324219 L 185.347656 142.324219 C 176.359375 142.324219 169.214844 135.179688 169.214844 126.191406 L 169.214844 119.277344 C 169.214844 110.289062 176.359375 103.144531 185.347656 103.144531 L 192.261719 103.144531 C 201.25 103.144531 208.394531 110.289062 208.394531 119.277344 L 208.394531 131.492188 C 208.394531 132.644531 207.472656 133.566406 206.320312 133.566406 L 203.785156 133.566406 C 202.632812 133.566406 201.710938 132.644531 201.710938 131.492188 L 201.710938 120.199219 C 201.710938 114.4375 197.101562 109.828125 191.339844 109.828125 L 186.5 109.828125 C 180.738281 109.828125 176.128906 114.4375 176.128906 120.199219 L 176.128906 125.039062 C 176.128906 130.800781 180.738281 135.410156 186.5 135.410156 L 194.566406 135.410156 C 196.179688 139.097656 199.636719 141.632812 203.785156 141.632812 L 206.320312 141.632812 C 211.851562 141.632812 216.460938 137.023438 216.460938 131.492188 L 216.460938 119.277344 C 216.460938 106.140625 205.628906 95.308594 192.261719 95.308594 Z M 184.195312 125.5 L 184.195312 120.660156 C 184.195312 119.507812 185.117188 118.355469 186.5 118.355469 L 191.339844 118.355469 C 192.492188 118.355469 193.644531 119.277344 193.644531 120.660156 L 193.644531 127.804688 L 186.5 127.804688 C 185.117188 127.804688 184.195312 126.652344 184.195312 125.5 Z M 184.195312 125.5 " fill-opacity="1" fill-rule="nonzero"/></svg>