<svg xmlns="http://www.w3.org/2000/svg" xmlns:xlink="http://www.w3.org/1999/xlink" width="500" zoomAndPan="magnify" viewBox="0 0 375 374.999991" height="500" preserveAspectRatio="xMidYMid meet" version="1.0"><defs><clipPath id="164590bece"><path d="M 2.621094 0 L 375 0 L 375 372.378906 L 2.621094 372.378906 Z M 2.621094 0 " clip-rule="nonzero"/></clipPath><clipPath id="07f65dced8"><path d="M 188.808594 0 C 85.980469 0 2.621094 83.359375 2.621094 186.191406 C 2.621094 289.019531 85.980469 372.378906 188.808594 372.378906 C 291.640625 372.378906 375 289.019531 375 186.191406 C 375 83.359375 291.640625 0 188.808594 0 Z M 188.808594 0 " clip-rule="nonzero"/></clipPath><clipPath id="0cddd83798"><path d="M 61.296875 80 L 313 80 L 313 296.304688 L 61.296875 296.304688 Z M 61.296875 80 " clip-rule="nonzero"/></clipPath></defs><g clip-path="url(#164590bece)"><g clip-path="url(#07f65dced8)"><path fill="#fecc09" d="M 2.621094 0 L 375 0 L 375 372.378906 L 2.621094 372.378906 Z M 2.621094 0 " fill-opacity="1" fill-rule="nonzero"/></g></g><g clip-path="url(#0cddd83798)"><path fill="#3f3f3f" d="M 236.558594 193.605469 C 228.019531 193.605469 221.097656 186.683594 221.097656 178.148438 C 221.097656 169.609375 228.019531 162.6875 236.558594 162.6875 C 245.09375 162.6875 252.015625 169.609375 252.015625 178.148438 C 252.015625 186.683594 245.09375 193.605469 236.558594 193.605469 Z M 185.027344 193.605469 C 176.492188 193.605469 169.570312 186.683594 169.570312 178.148438 C 169.570312 169.609375 176.492188 162.6875 185.027344 162.6875 C 193.566406 162.6875 200.488281 169.609375 200.488281 178.148438 C 200.488281 186.683594 193.566406 193.605469 185.027344 193.605469 Z M 133.5 193.605469 C 124.960938 193.605469 118.039062 186.683594 118.039062 178.148438 C 118.039062 169.609375 124.960938 162.6875 133.5 162.6875 C 142.039062 162.6875 148.957031 169.609375 148.957031 178.148438 C 148.957031 186.683594 142.039062 193.605469 133.5 193.605469 Z M 189.078125 80.203125 C 119.773438 78.835938 62.726562 121.542969 61.660156 175.589844 C 61.292969 194.378906 67.742188 212.066406 79.21875 227.203125 L 79.214844 227.203125 C 98.957031 252.5625 77.410156 296.15625 77.410156 296.15625 L 141.019531 268.761719 C 154.726562 273.09375 169.617188 275.617188 185.222656 275.925781 C 254.527344 277.289062 311.574219 234.585938 312.636719 180.535156 C 313.703125 126.488281 258.382812 81.570312 189.078125 80.203125 " fill-opacity="1" fill-rule="evenodd"/></g></svg>