<svg xmlns="http://www.w3.org/2000/svg" xmlns:xlink="http://www.w3.org/1999/xlink" width="500" zoomAndPan="magnify" viewBox="0 0 375 374.999991" height="500" preserveAspectRatio="xMidYMid meet" version="1.0"><defs><clipPath id="a7094f831f"><path d="M 2.621094 0 L 375 0 L 375 372.378906 L 2.621094 372.378906 Z M 2.621094 0 " clip-rule="nonzero"/></clipPath><clipPath id="c9b8af188c"><path d="M 188.808594 0 C 85.980469 0 2.621094 83.359375 2.621094 186.191406 C 2.621094 289.019531 85.980469 372.378906 188.808594 372.378906 C 291.640625 372.378906 375 289.019531 375 186.191406 C 375 83.359375 291.640625 0 188.808594 0 Z M 188.808594 0 " clip-rule="nonzero"/></clipPath><clipPath id="6a12fd4b38"><path d="M 128.921875 63.523438 L 245.921875 63.523438 L 245.921875 311.773438 L 128.921875 311.773438 Z M 128.921875 63.523438 " clip-rule="nonzero"/></clipPath></defs><rect x="-37.5" width="450" fill="#ffffff" y="-37.499999" height="449.999989" fill-opacity="1"/><rect x="-37.5" width="450" fill="#ffffff" y="-37.499999" height="449.999989" fill-opacity="1"/><g clip-path="url(#a7094f831f)"><g clip-path="url(#c9b8af188c)"><path fill="#3f3f3f" d="M 2.621094 0 L 375 0 L 375 372.378906 L 2.621094 372.378906 Z M 2.621094 0 " fill-opacity="1" fill-rule="nonzero"/></g></g><g clip-path="url(#6a12fd4b38)"><path fill="#ffffff" d="M 218.929688 104.699219 L 245.921875 104.699219 L 245.921875 63.898438 L 211.453125 63.898438 L 211.453125 64.054688 C 166.140625 65.722656 156.796875 91.167969 156.015625 118.074219 L 155.914062 118.074219 L 155.914062 146.382812 L 128.921875 146.382812 L 128.921875 187.234375 L 155.914062 187.234375 L 155.914062 311.398438 L 204.34375 311.398438 L 204.34375 187.234375 L 239.070312 187.234375 L 245.921875 146.382812 L 204.34375 146.382812 L 204.34375 121.039062 C 204.34375 112.035156 210.363281 104.699219 218.929688 104.699219 Z M 218.929688 104.699219 " fill-opacity="1" fill-rule="nonzero"/></g></svg>